<?xml version="1.0" encoding="utf-8"?>
<!-- Generator: Adobe Illustrator 27.6.1, SVG Export Plug-In . SVG Version: 6.00 Build 0)  -->
<svg version="1.1" id="OBJECTS" xmlns="http://www.w3.org/2000/svg" xmlns:xlink="http://www.w3.org/1999/xlink" x="0px" y="0px"
	 viewBox="0 0 380 169.33" style="enable-background:new 0 0 380 169.33;" xml:space="preserve">
<style type="text/css">
	.st0{fill-rule:evenodd;clip-rule:evenodd;fill:#21031A;}
	.st1{fill-rule:evenodd;clip-rule:evenodd;fill:#D4F4F3;}
	.st2{fill-rule:evenodd;clip-rule:evenodd;fill:#161341;}
	.st3{fill-rule:evenodd;clip-rule:evenodd;fill:#632DC6;}
	.st4{fill-rule:evenodd;clip-rule:evenodd;fill:#2C1341;}
	.st5{fill-rule:evenodd;clip-rule:evenodd;fill:#FFFFFF;}
	.st6{fill-rule:evenodd;clip-rule:evenodd;fill:#1F1E24;}
	.st7{fill-rule:evenodd;clip-rule:evenodd;fill:#596F56;}
</style>
<g>
	<path class="st0" d="M354.8,140.8c0.03,0,0.06,0,0.08,0c4.22-0.24,7.09-4.43,5.84-8.51l-9.31-30.6l-42.74-18.06l-39.46,1.47
		L71.99,85.83L23.4,93.59l-8.21,47.22H354.8z"/>
	<path class="st1" d="M231.78,16.29l-8.32,2.01l-4.02,2.58c0,0,23.1,4.74,46.84,39.08l33.62-4.06
		C299.9,55.9,278.91,31.43,231.78,16.29z"/>
	<path class="st2" d="M24.69,44.41l-1.98-1.12c-3.62-0.19-16.09,29.2-10.8,33.57C11.91,76.87,29.07,59.55,24.69,44.41z"/>
	<path class="st3" d="M372.3,128l-0.46,6.5c-0.16,2.31-1.73,4.28-3.92,4.94l0,0c0,0,0,0,0,0c-5.72,1.72-11.62-2.02-12.64-7.96
		c-2.09-12.2-9.44-30.83-34.85-30.54c-35.8-1.11-34.11,37.27-34.11,37.27H86.46c0,0,2.15-38.96-39.11-37.27
		c-34.6,1.3-29.8,41.7-29.8,41.7l-5.12-1.47c0,0-1.99-12.47-3.75-24.29c-1.33-8.91-0.96-17.97,0.78-26.82
		c0.25-1.28,0.41-2.6,0.41-3.91c0,0,8.4-45.06,24.48-62.04c2.14-4.09-9.64-4.75-7.42-7.82c2.35-0.31,137.7-17.77,204.84,0.01
		l-8.32,2c0,0,29.67,11.35,43.92,39.41l32.87-3.69c17.92,4.09,36.85,7.64,50.86,17.52c7.24,5.1,13.14,11.89,16.93,21.32
		c0.03,0.09,0.07,0.17,0.1,0.26c1.08,2.74,1.57,5.68,1.53,8.63l-0.31,23.3L372.3,128z"/>
	<path class="st4" d="M372.98,122.63l-1.07,11.86c-0.21,2.32-1.79,4.28-4,4.94l0,0c0,0,0,0,0,0c-5.72,1.71-11.62-2.02-12.64-7.96
		c-2.09-12.2-9.44-30.83-34.84-30.53c-35.8-1.11-34.11,37.26-34.11,37.26l-199.85,0c0,0,2.15-38.95-39.11-37.27
		c-34.59,1.3-29.8,41.7-29.8,41.7l-8.55-2.15c0,0-1.86-11.96-3.61-23.39c2.1-0.63,7.52-1.09,8-1.18
		c5.86-18.78,21.24-28.44,37.37-29.44c28.78-1.78,41.48,28.13,44.48,44.56c52.46-0.26,128.74-0.52,178.55-0.77
		c10.05-57.81,67.41-54.01,88.99-14.25c0,0,2.41,0.19,5.08,0.43C370.97,116.72,373.26,119.49,372.98,122.63z"/>
	<path class="st1" d="M60.44,23.35c-10.9,0.95-13.85,25.47-15.53,36.08h101.71l4.44-42.21C136.73,17.4,73.39,18.35,60.44,23.35
		L60.44,23.35z M257.5,59.43c-5.11-9.38-34.48-40.36-77.77-41.93c-7.56-0.27-15.09-0.36-22.44-0.31l-2.93,42.24H257.5z"/>
	<path class="st4" d="M249.53,48.5c0,0-4.38,8.12,1.47,14.77C251,63.27,271.46,55.15,249.53,48.5z"/>
	<path class="st5" d="M368.05,92.86c-6.57,3.99-18.22-5.32-21.17-10.33c-3.24-5.45-3.18-11.33,4.24-10.99
		C358.36,76.63,364.26,83.42,368.05,92.86z"/>
	<path class="st4" d="M155.47,71.03l0-1.3c-0.01-1.2,0.72-2.18,1.63-2.19l19.4-0.11c0.91-0.01,1.65,0.97,1.65,2.17l0.01,1.31
		L155.47,71.03z"/>
	<path class="st2" d="M79.6,71.56l-0.01-1.3c-0.01-1.2,0.73-2.19,1.63-2.19l19.4-0.11c0.91-0.01,1.65,0.97,1.65,2.17l0.01,1.3
		L79.6,71.56z"/>
	<g>
		<path class="st6" d="M300.5,153.11c10.74,10.74,28.06,10.66,38.69-0.19c10.63-10.85,10.54-28.36-0.19-39.1
			c-10.74-10.74-28.06-10.66-38.69,0.19C289.68,124.86,289.77,142.36,300.5,153.11L300.5,153.11z M333.91,147.63L333.91,147.63
			c-7.74,7.9-20.36,7.97-28.18,0.14c-7.82-7.83-7.88-20.58-0.14-28.48c7.74-7.9,20.36-7.97,28.18-0.14
			C341.59,126.97,341.65,139.72,333.91,147.63z"/>
		<path class="st5" d="M319.64,110.61c12.48-0.06,22.66,10.12,22.72,22.74c0.06,12.62-10.01,22.9-22.5,22.97
			c-12.49,0.06-22.66-10.12-22.72-22.74C297.08,120.95,307.15,110.67,319.64,110.61z"/>
		<path class="st6" d="M319.65,113.32c-11,0.06-19.88,9.11-19.82,20.23c0.05,11.12,9.02,20.09,20.02,20.03
			c11-0.06,19.88-9.11,19.82-20.23C339.62,122.24,330.65,113.27,319.65,113.32z"/>
		<path class="st3" d="M323.74,138.87c2.69-2.75,2.67-7.18-0.05-9.91c-2.72-2.72-7.11-2.7-9.8,0.05c-2.69,2.75-2.67,7.18,0.05,9.91
			C316.66,141.64,321.05,141.61,323.74,138.87z"/>
		<path class="st5" d="M317.5,155.55l-1.26-15.23l-11.45,9.99l-2.02-2.02l9.77-11.67l-15.08-1.12l-0.02-2.88l15.07-1.27l-9.88-11.57
			l2-2.04l11.55,9.87l1.11-15.25l2.85-0.01l1.26,15.23l11.45-9.99l2.02,2.02l-9.77,11.67l15.08,1.12l0.01,2.88l-15.07,1.27
			l9.88,11.57l-2,2.04l-11.55-9.87l-1.11,15.25L317.5,155.55L317.5,155.55z M317.49,137.23l2.69-0.01l1.89-1.93l-0.01-2.73
			l-1.91-1.92l-2.69,0.01l-1.9,1.94l0.01,2.72L317.49,137.23z"/>
	</g>
	<g>
		<path class="st6" d="M31.63,153.11c10.74,10.74,28.06,10.66,38.69-0.19c10.63-10.85,10.54-28.36-0.19-39.1
			c-10.74-10.74-28.06-10.66-38.69,0.19C20.81,124.86,20.89,142.36,31.63,153.11L31.63,153.11z M65.03,147.63L65.03,147.63
			c-7.74,7.9-20.36,7.97-28.18,0.14c-7.82-7.83-7.88-20.58-0.14-28.48c7.74-7.9,20.36-7.97,28.18-0.14
			C72.71,126.97,72.78,139.72,65.03,147.63z"/>
		<path class="st5" d="M50.76,110.61c12.48-0.06,22.66,10.12,22.72,22.74c0.06,12.62-10.01,22.9-22.5,22.97
			c-12.49,0.06-22.66-10.12-22.72-22.74C28.2,120.95,38.28,110.67,50.76,110.61z"/>
		<path class="st6" d="M50.78,113.32c-11,0.06-19.88,9.11-19.82,20.23c0.05,11.12,9.02,20.09,20.02,20.03
			c11-0.06,19.88-9.11,19.82-20.23C70.74,122.24,61.78,113.27,50.78,113.32z"/>
		<path class="st7" d="M54.87,138.87c2.69-2.75,2.67-7.18-0.05-9.91c-2.72-2.72-7.11-2.7-9.8,0.05c-2.69,2.75-2.67,7.18,0.05,9.91
			C47.79,141.64,52.17,141.61,54.87,138.87z"/>
		<path class="st5" d="M48.63,155.55l-1.26-15.23l-11.45,9.99l-2.02-2.02l9.77-11.67l-15.08-1.12l-0.02-2.88l15.07-1.27l-9.88-11.57
			l2-2.04l11.55,9.87l1.11-15.25l2.85-0.01l1.26,15.23l11.45-9.99l2.02,2.02l-9.77,11.67l15.08,1.12l0.01,2.88l-15.07,1.27
			l9.88,11.57l-2,2.04l-11.55-9.87l-1.11,15.25L48.63,155.55L48.63,155.55z M48.61,137.23l2.69-0.01l1.89-1.93l-0.01-2.73
			l-1.91-1.92l-2.69,0.01l-1.9,1.94l0.01,2.72L48.61,137.23z"/>
	</g>
</g>
</svg>
